<?xml version="1.0" encoding="utf-8"?>
<!-- Generator: Adobe Illustrator 25.4.1, SVG Export Plug-In . SVG Version: 6.00 Build 0)  -->
<svg version="1.1" id="Layer_1" xmlns="http://www.w3.org/2000/svg" xmlns:xlink="http://www.w3.org/1999/xlink" x="0px" y="0px"
	 viewBox="0 0 586.3 291.1" style="enable-background:new 0 0 586.3 291.1;" xml:space="preserve">
<style type="text/css">
	.st0{fill:#F0822F;}
	.st1{fill:#FAE1B9;}
	.st2{fill:#FECC2A;}
</style>
<path class="st0" d="M293.2,101.3L1.6,196.2l291.5,94.9l291.5-94.9L293.2,101.3z M49.8,192.9l243.3-79.2l243.2,79.2l-243.2,79.2
	L49.8,192.9z"/>
<path class="st1" d="M293.2,50.6l-291.6,95l291.5,94.9l291.5-94.9L293.2,50.6z M49.8,142.3l243.3-79.2l243.3,79.2l-243.3,79.3
	L49.8,142.3z"/>
<path class="st2" d="M293.2,0L1.6,94.9l291.5,95l291.4-95L293.2,0z M49.8,91.7l243.3-79.2l243.2,79.2l-243.2,79.2L49.8,91.7z"/>
</svg>
